<svg
  id="Line_Expand"
  enable-background="new 0 0 64 64"
  height="512"
  viewBox="0 0 64 64"
  width="512"
  xmlns="http://www.w3.org/2000/svg"
>
  <defs>
    <style>
      .cls-1 {
        fill: #3fa652;
      }
    </style>
  </defs>
  <path
    class="cls-1"
    d="m17 20h2.643c.212.658.477 1.297.79 1.91l-1.868 1.868c-.391.391-.391 1.023 0 1.414l4.243 4.242c.391.391 1.023.391 1.414 0l2.399-2.398-1.414-1.414-1.692 1.691-2.829-2.828 1.692-1.692c.323-.322.386-.823.154-1.216-.519-.879-.913-1.83-1.17-2.827-.114-.441-.512-.75-.968-.75h-2.394v-4h2.394c.456 0 .854-.309.968-.75.257-.997.651-1.948 1.17-2.827.232-.393.169-.894-.154-1.216l-1.692-1.692 2.829-2.828 1.692 1.691c.323.322.823.386 1.215.154.88-.52 1.831-.913 2.828-1.17.441-.114.75-.512.75-.968v-2.394h4v2.394c0 .456.309.854.75.969.997.257 1.948.65 2.828 1.17.393.23.892.167 1.215-.154l1.692-1.691 2.829 2.828-1.692 1.692c-.323.322-.386.823-.154 1.216.519.879.913 1.83 1.17 2.827.114.44.512.749.968.749h2.394v4h-2.394c-.456 0-.854.309-.968.75-.257.997-.651 1.948-1.17 2.827-.232.393-.169.894.154 1.216l1.692 1.692-2.829 2.828-1.692-1.691-1.414 1.414 2.399 2.398c.195.195.451.293.707.293s.512-.098.707-.293l4.243-4.242c.391-.391.391-1.023 0-1.414l-1.868-1.868c.313-.613.578-1.252.79-1.91h2.643c.552 0 1-.447 1-1v-6c0-.553-.448-1-1-1h-2.643c-.212-.658-.477-1.297-.79-1.91l1.868-1.868c.391-.391.391-1.023 0-1.414l-4.243-4.242c-.391-.391-1.023-.391-1.414 0l-1.868 1.868c-.613-.315-1.252-.579-1.91-.791v-2.643c0-.553-.448-1-1-1h-6c-.552 0-1 .447-1 1v2.643c-.658.213-1.297.477-1.91.791l-1.868-1.868c-.391-.391-1.023-.391-1.414 0l-4.243 4.242c-.391.391-.391 1.023 0 1.414l1.868 1.868c-.313.613-.578 1.252-.79 1.91h-2.643c-.552 0-1 .447-1 1v6c0 .553.448 1 1 1z"
  />
  <path
    class="cls-1"
    d="m34.57 20.414c-.348.166-.57.518-.57.903v4.683h2v-4.08c2.449-1.42 4-4.07 4-6.92 0-3.065-1.794-5.899-4.57-7.221-.309-.146-.674-.125-.964.058-.29.184-.466.503-.466.846v6.317h-4v-6.317c0-.343-.176-.662-.466-.846-.291-.183-.655-.204-.964-.058-2.776 1.322-4.57 4.156-4.57 7.221 0 2.85 1.551 5.5 4 6.92v9.08c0 .553.448 1 1 1h6c.552 0 1-.447 1-1v-3h-2v2h-4v-8.683c0-.386-.222-.737-.57-.903-2.084-.991-3.43-3.116-3.43-5.414 0-1.717.751-3.337 2-4.46v5.46c0 .553.448 1 1 1h6c.552 0 1-.447 1-1v-5.46c1.249 1.123 2 2.743 2 4.46 0 2.298-1.346 4.423-3.43 5.414z"
  />
  <path
    class="cls-1"
    d="m36.83 41.9998c-.41-1.16-1.53-2-2.83-2h-1v-6h-2v6h-1c-1.3 0-2.42.84-2.83 2h-7.17v2h7.17c.42 1.16 1.53 2 2.83 2h4c1.3 0 2.42-.84 2.83-2h7.17v-2zm-2.83 2h-4c-.55 0-1-.45-1-1s.45-1 1-1h4c.55 0 1 .45 1 1s-.45 1-1 1z"
  />
  <path
    class="cls-1"
    d="m18.92 49.7997-2.28-.66-1.08-1.69c1.5-.78 2.58-2.3 2.7-4.09l.31-4.29.02-.24c.12-1.76-.4901-3.51-1.69-4.8-1.2-1.29-2.91-2.03-4.67-2.03l-.84.01c-2.29.14-4.31 1.47-5.34 3.55-.01.02-.02.05-.03.07-.47.99-.68 2.09-.61 3.19l.33 4.54c.13 1.79 1.2 3.31 2.71 4.09l-1.09 1.69-2.28.65c-2.99.86-5.08 3.63-5.08 6.7401v6.47c0 .55.45 1 1 1h22c.55 0 1-.45 1-1v-6.47c0-3.1101-2.09-5.88-5.08-6.7301zm-3.26 4.2301-1.87-1.12.85-.64.64-.48zm-3.66-2.28-2.66-1.99 1.12-1.76h3.08l1.12 1.76zm-2.34-17.2101c1.15-.64 2.25-.58 2.73-.54.42.03 1.19.1 2.02.58.25.14 1.3701.82 1.91 2.23.23.61.28 1.15.28 1.5-1.25.45-2.25.42-2.84.36-1.51-.13-2.8-.67-4.01-1.68-.66-.55-1.15-.94-1.49-1.22.25-.3299.69-.84 1.4-1.23zm-1.93 8.6701-.32-4.53c-.03-.34-.0099-.67.04-1l1.11.92c1.66 1.3799 3.69 2.1 5.75 2.1.72 0 1.44-.09 2.16-.27l-.2 2.78c-.11 1.57-1.43 2.79-3 2.79h-2.55c-1.56 0-2.88-1.22-2.99-2.79zm.99 8.5799.64.48.85.64-1.87 1.12zm13.28 10.2101h-20v-5.47c0-2.23 1.49-4.2 3.63-4.81l1.12-.32-.74 4.44c-.06.38.1.77.43.99.17.11.36.17.56.17.18 0 .36-.05.51-.14l4.49-2.69 4.49 2.69c.15.09.33.14.51.14.2 0 .39-.06.56-.17.33-.22.49-.61.43-.99l-.74-4.44 1.12.32c1.07.31 1.98.95 2.62 1.8s1.01 1.9 1.01 3.01z"
  />
  <path
    class="cls-1"
    d="m58.92 49.7997-2.28-.66-1.08-1.69c1.5-.78 2.58-2.3 2.7-4.09l.31-4.29.02-.24c.12-1.76-.4901-3.51-1.69-4.8-1.2-1.29-2.91-2.03-4.67-2.03l-.84.01c-2.29.14-4.31 1.47-5.34 3.55-.01.02-.02.05-.03.07-.47.99-.68 2.09-.61 3.19l.33 4.54c.13 1.79 1.2 3.31 2.71 4.09l-1.09 1.69-2.28.65c-2.99.86-5.08 3.63-5.08 6.7401v6.47c0 .55.45 1 1 1h22c.55 0 1-.45 1-1v-6.47c0-3.1101-2.09-5.88-5.08-6.7301zm-3.26 4.2301-1.87-1.12.85-.64.64-.48zm-3.66-2.28-2.66-1.99 1.12-1.76h3.08l1.12 1.76zm-2.34-17.2101c1.15-.64 2.25-.58 2.73-.54.42.03 1.19.1 2.02.58.25.14 1.3701.82 1.91 2.23.23.61.28 1.15.28 1.5-1.25.45-2.25.42-2.84.36-1.51-.13-2.8-.67-4.01-1.68-.66-.55-1.15-.94-1.49-1.22.25-.3299.69-.84 1.4-1.23zm-1.93 8.6701-.32-4.53c-.03-.34-.0099-.67.04-1l1.11.92c1.66 1.3799 3.69 2.1 5.75 2.1.72 0 1.44-.09 2.16-.27l-.2 2.78c-.11 1.57-1.43 2.79-3 2.79h-2.55c-1.56 0-2.88-1.22-2.99-2.79zm.99 8.5799.64.48.85.64-1.87 1.12zm13.28 10.2101h-20v-5.47c0-2.23 1.49-4.2 3.63-4.81l1.12-.32-.74 4.44c-.06.38.1.77.43.99.17.11.36.17.56.17.18 0 .36-.05.51-.14l4.49-2.69 4.49 2.69c.15.09.33.14.51.14.2 0 .39-.06.56-.17.33-.22.49-.61.43-.99l-.74-4.44 1.12.32c1.07.31 1.98.95 2.62 1.8s1.01 1.9 1.01 3.01z"
  />
</svg>
