<?xml version="1.0" standalone="no"?>
<!DOCTYPE svg PUBLIC "-//W3C//DTD SVG 20010904//EN"
 "http://www.w3.org/TR/2001/REC-SVG-20010904/DTD/svg10.dtd">
<svg version="1.0" xmlns="http://www.w3.org/2000/svg"
 width="2377.000000pt" height="2377.000000pt" viewBox="0 0 2377.000000 2377.000000"
 preserveAspectRatio="xMidYMid meet">
<metadata>
Created by potrace 1.11, written by Peter Selinger 2001-2013
</metadata>
<g transform="translate(0.000000,2377.000000) scale(0.100000,-0.100000)"
fill="#000000" stroke="none">
<path d="M11468 23765 c-2 -1 -75 -6 -163 -10 -88 -3 -173 -8 -190 -10 -16 -2
-76 -6 -132 -10 -55 -3 -112 -8 -125 -10 -12 -2 -62 -6 -110 -10 -47 -3 -97
-8 -110 -10 -12 -2 -54 -6 -93 -10 -38 -4 -79 -9 -90 -11 -11 -2 -42 -6 -70
-9 -27 -3 -61 -8 -75 -10 -14 -3 -43 -7 -65 -10 -73 -9 -110 -15 -135 -19 -14
-3 -45 -8 -70 -11 -66 -9 -341 -57 -400 -70 -14 -3 -40 -8 -59 -11 -18 -3 -43
-8 -55 -10 -11 -3 -34 -7 -51 -10 -16 -3 -48 -10 -70 -16 -22 -5 -49 -12 -60
-14 -60 -11 -437 -101 -500 -119 -27 -8 -115 -33 -195 -55 -172 -48 -281 -81
-410 -123 -52 -17 -97 -32 -100 -33 -3 0 -12 -3 -20 -7 -8 -3 -49 -17 -90 -30
-114 -39 -303 -106 -325 -117 -11 -5 -51 -21 -90 -35 -38 -14 -79 -29 -90 -34
-11 -5 -45 -19 -75 -31 -30 -11 -64 -25 -75 -30 -11 -5 -96 -41 -188 -80 -218
-92 -232 -98 -562 -260 -260 -128 -466 -236 -625 -330 -220 -128 -349 -205
-380 -225 -19 -12 -116 -75 -215 -139 -277 -180 -430 -287 -705 -494 -91 -69
-167 -128 -170 -131 -3 -3 -50 -42 -105 -85 -88 -70 -260 -213 -291 -241 -6
-5 -42 -37 -80 -70 -204 -178 -453 -415 -684 -650 -126 -128 -212 -220 -345
-370 -44 -49 -88 -99 -99 -110 -60 -66 -325 -386 -404 -490 -66 -85 -302 -402
-322 -432 -8 -11 -54 -77 -101 -145 -161 -231 -427 -653 -522 -828 -16 -30
-33 -59 -37 -65 -4 -5 -25 -41 -46 -80 -21 -38 -55 -101 -76 -140 -117 -212
-367 -736 -484 -1012 -8 -18 -20 -48 -28 -65 -140 -328 -325 -859 -449 -1293
-49 -168 -159 -598 -171 -665 -2 -14 -14 -68 -25 -120 -12 -52 -24 -110 -27
-129 -3 -18 -8 -43 -10 -55 -12 -56 -25 -124 -29 -146 -14 -83 -32 -190 -39
-225 -8 -45 -32 -204 -42 -280 -2 -22 -6 -47 -9 -55 -3 -13 -11 -77 -20 -170
-3 -37 -16 -140 -21 -180 -3 -19 -7 -60 -10 -90 -2 -30 -7 -80 -10 -110 -2
-30 -7 -91 -10 -135 -2 -44 -7 -105 -9 -135 -27 -324 -27 -1196 0 -1535 2 -27
7 -90 10 -140 3 -49 8 -106 10 -125 2 -19 6 -62 10 -95 12 -126 16 -171 20
-205 16 -131 26 -209 30 -235 4 -28 10 -73 21 -155 2 -19 9 -60 14 -90 5 -30
12 -73 15 -95 40 -276 172 -884 264 -1220 53 -191 163 -557 181 -600 5 -11 28
-76 51 -145 57 -171 185 -515 234 -625 7 -16 43 -102 80 -190 37 -88 71 -164
75 -170 3 -5 13 -26 20 -45 24 -63 307 -632 380 -765 40 -71 85 -152 100 -180
46 -85 189 -325 264 -443 39 -62 76 -121 81 -130 6 -9 51 -77 100 -151 50 -74
95 -142 100 -151 31 -50 208 -293 395 -541 52 -69 273 -344 284 -354 6 -5 43
-48 82 -95 281 -334 660 -727 1025 -1060 131 -120 115 -106 189 -170 35 -30
68 -59 74 -65 36 -33 206 -173 291 -241 55 -43 108 -86 118 -94 11 -8 24 -20
31 -25 18 -17 356 -268 411 -306 28 -19 52 -37 55 -40 3 -3 100 -69 215 -146
639 -427 1196 -731 1930 -1053 421 -185 1043 -405 1510 -534 91 -25 318 -84
352 -91 10 -2 74 -17 143 -34 69 -16 136 -32 150 -35 14 -3 48 -10 75 -16 131
-28 525 -101 650 -119 77 -12 149 -23 160 -25 11 -2 49 -7 85 -11 36 -4 74 -9
85 -11 11 -2 85 -11 165 -20 80 -8 161 -17 180 -19 19 -2 69 -6 110 -9 41 -3
104 -8 140 -12 36 -3 92 -7 125 -9 33 -2 119 -7 190 -11 258 -16 1194 -8 1355
11 19 2 78 7 130 10 52 4 109 8 125 10 17 1 64 6 105 9 41 4 91 9 110 11 19 3
60 7 90 10 30 3 66 7 80 10 14 2 50 7 80 10 30 4 66 8 80 10 14 2 45 7 70 10
25 3 90 13 145 21 55 9 125 19 155 24 30 4 66 11 80 14 14 3 39 7 55 10 17 2
55 9 85 16 30 6 71 13 90 16 19 3 43 7 52 10 10 3 30 7 45 10 16 2 39 7 53 10
14 3 34 8 44 10 11 2 72 15 136 29 64 14 125 27 136 30 77 16 443 113 604 160
1233 359 2441 937 3475 1663 140 98 425 307 470 345 11 9 66 52 122 96 103 81
268 217 334 275 19 17 61 54 93 81 32 28 68 59 80 70 12 11 62 56 110 100 389
353 858 845 1156 1214 19 24 45 55 57 70 81 97 368 470 413 538 8 11 45 63 81
115 165 233 353 523 498 768 35 58 67 112 72 120 66 109 357 652 386 720 3 8
27 60 54 116 49 104 152 332 195 432 8 17 20 47 28 65 21 46 117 288 153 382
63 164 95 250 99 265 2 8 40 123 85 255 44 132 82 249 85 259 2 10 24 87 48
170 43 143 160 594 169 654 3 15 12 54 20 87 9 33 18 76 21 95 3 19 16 89 30
155 25 120 30 147 41 219 4 21 9 48 11 60 2 11 7 36 10 55 3 18 7 43 10 54 2
12 6 39 9 62 4 22 8 52 11 66 2 15 6 47 9 70 3 24 10 71 15 104 5 33 12 85 15
115 3 30 8 66 10 80 2 14 6 50 10 80 3 30 8 71 10 90 2 19 7 67 10 107 4 40 8
85 10 100 2 15 6 75 10 133 4 58 9 121 10 140 26 277 26 1242 0 1535 -2 28 -7
88 -10 135 -7 93 -11 146 -19 230 -3 30 -8 82 -11 115 -3 33 -8 71 -11 85 -2
14 -6 45 -8 70 -18 197 -119 813 -171 1040 -1 8 -10 49 -19 90 -8 41 -32 143
-52 225 -20 83 -37 157 -39 165 -79 334 -312 1063 -440 1375 -7 17 -34 84 -60
150 -27 66 -59 145 -72 175 -13 30 -28 64 -33 75 -97 224 -145 328 -270 580
-82 165 -158 316 -169 335 -11 19 -49 87 -84 150 -36 63 -75 133 -87 155 -132
236 -421 688 -617 965 -88 123 -352 472 -428 565 -347 424 -601 702 -955 1050
-193 189 -463 436 -601 550 -14 11 -51 43 -84 71 -170 144 -565 448 -775 595
-107 76 -440 299 -445 299 -3 0 -38 21 -78 47 -169 109 -287 180 -502 300
-326 183 -666 354 -980 492 -66 30 -140 62 -165 73 -25 12 -144 60 -265 108
-319 128 -551 210 -910 323 -280 88 -876 243 -1055 273 -14 2 -56 11 -95 19
-75 16 -100 21 -155 31 -19 4 -44 8 -55 10 -11 2 -47 9 -80 14 -33 5 -71 12
-85 15 -13 2 -42 7 -65 10 -51 8 -86 13 -155 25 -57 9 -106 16 -175 25 -22 2
-56 7 -75 9 -19 3 -60 8 -90 12 -30 3 -70 8 -88 10 -18 2 -56 6 -85 9 -28 3
-72 7 -97 10 -25 2 -79 7 -120 10 -41 4 -91 8 -110 10 -19 2 -87 7 -150 10
-63 4 -137 9 -165 11 -56 5 -1012 14 -1017 9z"/>
</g>
</svg>
