<?xml version="1.0" encoding="utf-8"?>
<!-- Generator: Adobe Illustrator 19.0.0, SVG Export Plug-In . SVG Version: 6.00 Build 0)  -->
<svg version="1.1" id="Gradient" xmlns="http://www.w3.org/2000/svg" xmlns:xlink="http://www.w3.org/1999/xlink" x="0px" y="0px"
	 viewBox="-49 141 512 512" style="enable-background:new -49 141 512 512;" xml:space="preserve">
<style type="text/css">
	.st0{fill:url(#SVGID_1_);}
</style>
<linearGradient id="SVGID_1_" gradientUnits="userSpaceOnUse" x1="207" y1="182.9976" x2="207" y2="615" gradientTransform="matrix(1 0 0 -1 0 796)">
	<stop  offset="0" style="stop-color:#12BEE5"/>
	<stop  offset="0.5" style="stop-color:#C071E9"/>
	<stop  offset="1" style="stop-color:#F24F5A"/>
</linearGradient>
<path class="st0" d="M439,413h-41.4c-4.1-16.7-17.1-48.2-58.5-55.5c-5.3-6.2-21.9-28.4-28.2-65.9c-0.7-4.4-4.8-7.3-9.2-6.6
	c-0.2,0-0.4,0.1-0.6,0.1c-7.2,2.1-13.8,5.8-19.3,10.7c-8.5,7.5-18.7,21.4-18.7,45c0,24.9,11.1,44,20.8,56h-48.1
	c12.7-21.9,19.3-46.7,19.3-72c0-79.4-64.6-144-144-144S-33,245.6-33,325c0,48.9,24.8,94.4,65.8,120.9L-0.8,587.1
	c-1,4.3,1.6,8.6,5.9,9.6c1.6,0.4,3.3,0.3,4.8-0.4l35.1-14l28.3,28.3c3.1,3.1,8.2,3.1,11.3,0c1.1-1.1,1.9-2.5,2.2-4L111,491.8
	l24.2,114.8c0.9,4.3,5.2,7.1,9.5,6.2c1.5-0.3,2.9-1.1,4-2.2l27.9-27.9C180.8,596,193.1,605,207,605h150.9c21.2,0,32.5-10,37.3-16
	H439c4.4,0,8-3.6,8-8V421C447,416.6,443.4,413,439,413z M255,429c0,8.8-7.2,16-16,16h-48c-8.8,0-16-7.2-16-16s7.2-16,16-16h48
	C247.8,413,255,420.2,255,429z M255,477c0,8.8-7.2,16-16,16h-48c-8.8,0-16-7.2-16-16s7.2-16,16-16h48C247.8,461,255,468.2,255,477z
	 M255,525c0,8.8-7.2,16-16,16h-48c-8.8,0-16-7.2-16-16s7.2-16,16-16h48C247.8,509,255,516.2,255,525z M111,421c-53,0-96-43-96-96
	s43-96,96-96s96,43,96,96C206.9,378,164,420.9,111,421z M-17,325c0-70.7,57.3-128,128-128c70.7,0,128,57.3,128,128
	c0,25.7-7.7,50.8-22.2,72h-20.1c39.7-47.3,33.4-117.9-13.9-157.5S65,206,25.3,253.4S-8.1,371.2,39.2,410.9
	c33.6,28.1,80.4,34.1,119.9,15.2c-0.1,1-0.1,1.9-0.1,2.9c0,4.6,1,9.2,3,13.4c-64.9,28.1-140.3-1.7-168.4-66.5
	C-13.4,359.8-17,342.5-17,325z M74.2,588.9l-21.6-21.6c-2.3-2.3-5.7-3-8.6-1.8l-25.7,10.3l29-121.7c16.3,8.1,34.1,13,52.2,14.4
	L74.2,588.9z M169.3,567.3l-21.6,21.6l-25.3-120.4c14.6-1.2,28.9-4.5,42.4-10c-9.5,13.3-7.3,31.7,5,42.4
	c-13.3,11.7-14.6,31.9-2.9,45.1c3.6,4.1,8.3,7.3,13.5,9.1c-2,3-3.5,6.4-4.4,9.9C173.5,564.8,171.1,565.6,169.3,567.3L169.3,567.3z
	 M207,589c-8.8,0-16-7.2-16-16s7.2-16,16-16h32c8.8,0,16,7.2,16,16s-7.2,16-16,16H207z M357.9,589h-91.2c7.6-13.2,4.9-29.9-6.6-40
	c12.2-10.7,14.4-28.8,5.2-42.1c26.3-3.8,63.5-14.5,69.5-44.3c0.9-4.3-1.9-8.5-6.3-9.4s-8.5,1.9-9.4,6.3l0,0
	c-3.6,18.2-28.7,27-51.1,30.9c5.9-12.8,2.7-28-8-37.3c11.5-10.1,14.2-26.8,6.6-40H303c4.4,0,8-3.6,8-8c0-2.5-1.2-4.9-3.2-6.4
	c-0.3-0.2-28.8-22.3-28.8-57.6c0-21.3,10.4-31.8,18.1-36.6c9.7,43.3,31.3,65.3,32.3,66.2c1.2,1.2,2.8,2,4.5,2.3
	c38.1,5.4,47,35.4,49.1,48.7v157C380.7,581.7,373.5,589,357.9,589z M431,573h-32V429h32V573z M110.4,266.7c10.9,0,19.3,2.8,25.2,8.5
	c5.5,5.2,8.2,12.1,8.2,20.7c0,3.5-0.4,6.8-1.2,9.8c-1.7,6.1-5.1,12.2-10.3,18.4c-4.3,5.2-10.9,11.9-19.7,20.3
	c-3.2,3.1-8.1,7.8-14.6,13.9l0.2,1.1h50.9l-0.2,18.1l-73.9,0.1v-7.4l16.6-16.9c12.4-12.6,20.5-22.2,24.3-28.8
	c2.2-3.8,3.8-7.4,4.7-10.5c0.9-3.2,1.4-6.5,1.4-10.1c0-13-5.9-19.4-17.8-19.4c-6.6,0-11.3,2.3-16.6,6.7l-5.7,6L81.8,277
	C88.7,270.1,98.2,266.7,110.4,266.7 M110.4,251.7c-16.3,0-29.4,4.9-39.2,14.6c-2.8,2.8-4.4,6.7-4.4,10.7l0.1,20.1
	c0,6.1,3.8,11.6,9.5,13.9c1.8,0.7,3.7,1.1,5.5,1.1c4,0,8-1.6,10.9-4.7l5-5.3c3.3-2.6,4.6-2.8,6.3-2.8c1.2,0,1.9,0.1,2.3,0.2
	c0.2,0.6,0.5,1.9,0.5,4.2c0,2.1-0.3,4.1-0.8,5.9c-0.4,1.4-1.3,3.7-3.3,7.2c-2.2,3.7-7.7,11.2-22,25.8l-16.6,16.9
	c-2.8,2.8-4.3,6.6-4.3,10.5v7.4c0,4,1.6,7.8,4.4,10.6c2.8,2.8,6.6,4.4,10.6,4.4c0,0,0,0,0,0l73.9-0.1c8.2,0,14.9-6.6,15-14.8
	l0.2-18.1c0.1-4-1.5-7.9-4.3-10.7c-2.8-2.9-6.7-4.5-10.7-4.5H134c3.9-4,7.2-7.5,9.8-10.6c6.6-7.8,11.1-15.9,13.3-24c0,0,0,0,0-0.1
	c1.2-4.3,1.7-8.9,1.7-13.7c0-12.7-4.4-23.6-12.8-31.6C137.2,256,125.2,251.7,110.4,251.7L110.4,251.7z"/>
</svg>
